# xmcd CD database file
#
# Track frame offsets:
#	150
#	27537
#	43631
#	58899
#	68589
#	82849
#	98519
#	114082
#	135798
#	155821
#	170557
#	187668
#	204129
#	218218
#	230090
#	241120
#	253670
#	267668
#	289544
#	299577
#	316800
#
# Disc length: 4421 seconds
#
# Revision: 3
# Processed by: cddbd v1.5.2PL0 Copyright (c) Steve Scherf et al.
# Submitted via: CDex 1.70beta2
#
DISCID=22114315
DTITLE=Dj PartyRaiser - DJ Partyraiser Time To Raise The Party
DYEAR=2009
DGENRE=Hardcore
TTITLE0=Beatstream and Radiate - Mainstream killah
TTITLE1=DJ Weirdo and DJ Sim - Go get busy (Accelarator refix)
TTITLE2=Angerfist and T-junction - Postcard from hell
TTITLE3=Paul Elstak vs Radiate and Beatstream - Angels deserve to die
TTITLE4=Dione - Really insane
TTITLE5=G-Town Madness and The Viper - Envy
TTITLE6=Dione - Eye of the storm (Angerfist remix)
TTITLE7=Tha Playah - Walking the line
TTITLE8=DJ Partyraiser and Corecell - Nasty horror
TTITLE9=Kasparov - Magic (Accelarator Remix)
TTITLE10=DJ Juanma - The Jungle
TTITLE11=Kasparov - Part of the Plan
TTITLE12=Tomcat and Rudeboy - Organized Confusion
TTITLE13=Project Omeaga - Lady Alzheimer
TTITLE14=Distorted Freakz - Fucking sober
TTITLE15=Masters Of Ceremony - A way to RFX
TTITLE16=Distortion and Paul Elstak - I get stronger
TTITLE17=DJ Partyraiser - Time to raise the party
TTITLE18=BredaSblar - Enjoy your life
TTITLE19=Nico and Tetta - Untouchables
TTITLE20=Paul Elstak vs Partyraiser ft. Firestone - I don't care (de gezellige mix)
EXTD=YEAR: 2009
EXTT0=
EXTT1=
EXTT2=
EXTT3=
EXTT4=
EXTT5=
EXTT6=
EXTT7=
EXTT8=
EXTT9=
EXTT10=
EXTT11=
EXTT12=
EXTT13=
EXTT14=
EXTT15=
EXTT16=
EXTT17=
EXTT18=
EXTT19=
EXTT20=
PLAYORDER=
